<?xml version="1.0" encoding="UTF-8"?>
<svg xmlns="http://www.w3.org/2000/svg" xmlns:xlink="http://www.w3.org/1999/xlink" width="140px" height="20px" viewBox="0 0 140 20" version="1.1">
<g id="surface11">
<path style=" stroke:none;fill-rule:nonzero;fill:rgb(13.72549%,15.294118%,16.470588%);fill-opacity:1;" d="M 4 0 L 20 0 L 20 20 L 4 20 C 1.332031 20 0 18.667969 0 16 L 0 4 C 0 1.332031 1.332031 0 4 0 Z M 4 0 "/>
<path style=" stroke:none;fill-rule:nonzero;fill:rgb(20.784314%,21.960784%,23.921569%);fill-opacity:1;" d="M 19 0 L 66 0 L 66 20 L 19 20 Z M 19 0 "/>
<path style=" stroke:none;fill-rule:nonzero;fill:rgb(22.745098%,24.313725%,25.882353%);fill-opacity:1;" d="M 65 0 L 136 0 C 138.667969 0 140 1.332031 140 4 L 140 16 C 140 18.667969 138.667969 20 136 20 L 65 20 Z M 65 0 "/>
<path style=" stroke:none;fill-rule:nonzero;fill:rgb(20.784314%,21.960784%,23.921569%);fill-opacity:1;" d="M 4 0 L 20 0 L 20 20 L 4 20 C 1.332031 20 0 18.667969 0 16 L 0 4 C 0 1.332031 1.332031 0 4 0 Z M 4 0 "/>
<path style=" stroke:none;fill-rule:nonzero;fill:rgb(78.823529%,78.823529%,78.823529%);fill-opacity:1;" d="M 27.9375 6.40625 L 28.84375 6.40625 L 28.84375 14 L 27.9375 14 Z M 30.9375 8.53125 L 31.84375 8.53125 L 31.84375 14 L 30.9375 14 Z M 30.9375 6.40625 L 31.84375 6.40625 L 31.84375 7.546875 L 30.9375 7.546875 Z M 37.875 11.265625 C 37.875 10.609375 37.734375 10.09375 37.453125 9.71875 C 37.179688 9.34375 36.8125 9.15625 36.34375 9.15625 C 35.863281 9.15625 35.488281 9.34375 35.21875 9.71875 C 34.945312 10.09375 34.8125 10.609375 34.8125 11.265625 C 34.8125 11.933594 34.945312 12.453125 35.21875 12.828125 C 35.488281 13.203125 35.863281 13.390625 36.34375 13.390625 C 36.8125 13.390625 37.179688 13.203125 37.453125 12.828125 C 37.734375 12.453125 37.875 11.933594 37.875 11.265625 Z M 34.8125 9.359375 C 35 9.039062 35.234375 8.796875 35.515625 8.640625 C 35.804688 8.484375 36.15625 8.40625 36.5625 8.40625 C 37.226562 8.40625 37.765625 8.671875 38.171875 9.203125 C 38.585938 9.726562 38.796875 10.414062 38.796875 11.265625 C 38.796875 12.132812 38.585938 12.828125 38.171875 13.359375 C 37.765625 13.882812 37.226562 14.140625 36.5625 14.140625 C 36.15625 14.140625 35.804688 14.0625 35.515625 13.90625 C 35.234375 13.75 35 13.507812 34.8125 13.171875 L 34.8125 14 L 33.90625 14 L 33.90625 6.40625 L 34.8125 6.40625 Z M 27 4.71875 "/>
<path style=" stroke:none;fill-rule:nonzero;fill:rgb(78.823529%,78.823529%,78.823529%);fill-opacity:1;" d="M 79.84375 11.84375 L 79.84375 8.53125 L 80.75 8.53125 L 80.75 11.8125 C 80.75 12.324219 80.847656 12.710938 81.046875 12.96875 C 81.253906 13.230469 81.554688 13.359375 81.953125 13.359375 C 82.441406 13.359375 82.828125 13.210938 83.109375 12.90625 C 83.390625 12.59375 83.53125 12.167969 83.53125 11.625 L 83.53125 8.53125 L 84.4375 8.53125 L 84.4375 14 L 83.53125 14 L 83.53125 13.15625 C 83.3125 13.492188 83.054688 13.742188 82.765625 13.90625 C 82.484375 14.0625 82.148438 14.140625 81.765625 14.140625 C 81.140625 14.140625 80.660156 13.949219 80.328125 13.5625 C 80.003906 13.167969 79.84375 12.59375 79.84375 11.84375 Z M 82.109375 8.40625 Z M 90.484375 10.703125 L 90.484375 14 L 89.59375 14 L 89.59375 10.734375 C 89.59375 10.214844 89.488281 9.828125 89.28125 9.578125 C 89.082031 9.320312 88.78125 9.1875 88.375 9.1875 C 87.894531 9.1875 87.515625 9.34375 87.234375 9.65625 C 86.953125 9.960938 86.8125 10.375 86.8125 10.90625 L 86.8125 14 L 85.90625 14 L 85.90625 8.53125 L 86.8125 8.53125 L 86.8125 9.375 C 87.03125 9.054688 87.285156 8.8125 87.578125 8.65625 C 87.867188 8.492188 88.203125 8.40625 88.578125 8.40625 C 89.203125 8.40625 89.675781 8.601562 90 8.984375 C 90.320312 9.371094 90.484375 9.945312 90.484375 10.703125 Z M 95.546875 9.359375 L 95.546875 6.40625 L 96.4375 6.40625 L 96.4375 14 L 95.546875 14 L 95.546875 13.171875 C 95.359375 13.507812 95.117188 13.75 94.828125 13.90625 C 94.535156 14.0625 94.1875 14.140625 93.78125 14.140625 C 93.125 14.140625 92.585938 13.882812 92.171875 13.359375 C 91.753906 12.828125 91.546875 12.132812 91.546875 11.265625 C 91.546875 10.414062 91.753906 9.726562 92.171875 9.203125 C 92.585938 8.671875 93.125 8.40625 93.78125 8.40625 C 94.1875 8.40625 94.535156 8.484375 94.828125 8.640625 C 95.117188 8.796875 95.359375 9.039062 95.546875 9.359375 Z M 92.484375 11.265625 C 92.484375 11.933594 92.617188 12.453125 92.890625 12.828125 C 93.160156 13.203125 93.535156 13.390625 94.015625 13.390625 C 94.484375 13.390625 94.851562 13.203125 95.125 12.828125 C 95.40625 12.453125 95.546875 11.933594 95.546875 11.265625 C 95.546875 10.609375 95.40625 10.09375 95.125 9.71875 C 94.851562 9.34375 94.484375 9.15625 94.015625 9.15625 C 93.535156 9.15625 93.160156 9.34375 92.890625 9.71875 C 92.617188 10.09375 92.484375 10.609375 92.484375 11.265625 Z M 102.625 11.046875 L 102.625 11.484375 L 98.484375 11.484375 C 98.523438 12.101562 98.710938 12.570312 99.046875 12.890625 C 99.378906 13.214844 99.84375 13.375 100.4375 13.375 C 100.78125 13.375 101.113281 13.335938 101.4375 13.25 C 101.769531 13.167969 102.09375 13.042969 102.40625 12.875 L 102.40625 13.71875 C 102.082031 13.855469 101.75 13.960938 101.40625 14.03125 C 101.070312 14.101562 100.734375 14.140625 100.390625 14.140625 C 99.515625 14.140625 98.820312 13.890625 98.3125 13.390625 C 97.800781 12.882812 97.546875 12.1875 97.546875 11.3125 C 97.546875 10.417969 97.785156 9.710938 98.265625 9.1875 C 98.753906 8.667969 99.410156 8.40625 100.234375 8.40625 C 100.972656 8.40625 101.554688 8.640625 101.984375 9.109375 C 102.410156 9.578125 102.625 10.226562 102.625 11.046875 Z M 101.71875 10.78125 C 101.71875 10.292969 101.582031 9.902344 101.3125 9.609375 C 101.039062 9.308594 100.6875 9.15625 100.25 9.15625 C 99.738281 9.15625 99.332031 9.304688 99.03125 9.59375 C 98.738281 9.875 98.566406 10.273438 98.515625 10.78125 Z M 108.359375 8.53125 L 108.359375 14 L 107.453125 14 L 107.453125 9.234375 L 105 9.234375 L 105 14 L 104.09375 14 L 104.09375 9.234375 L 103.234375 9.234375 L 103.234375 8.53125 L 104.09375 8.53125 L 104.09375 8.15625 C 104.09375 7.554688 104.234375 7.109375 104.515625 6.828125 C 104.796875 6.546875 105.226562 6.40625 105.8125 6.40625 L 106.71875 6.40625 L 106.71875 7.15625 L 105.859375 7.15625 C 105.535156 7.15625 105.3125 7.226562 105.1875 7.359375 C 105.0625 7.484375 105 7.714844 105 8.046875 L 105 8.53125 Z M 107.453125 6.40625 L 108.359375 6.40625 L 108.359375 7.546875 L 107.453125 7.546875 Z M 114.484375 10.703125 L 114.484375 14 L 113.59375 14 L 113.59375 10.734375 C 113.59375 10.214844 113.488281 9.828125 113.28125 9.578125 C 113.082031 9.320312 112.78125 9.1875 112.375 9.1875 C 111.894531 9.1875 111.515625 9.34375 111.234375 9.65625 C 110.953125 9.960938 110.8125 10.375 110.8125 10.90625 L 110.8125 14 L 109.90625 14 L 109.90625 8.53125 L 110.8125 8.53125 L 110.8125 9.375 C 111.03125 9.054688 111.285156 8.8125 111.578125 8.65625 C 111.867188 8.492188 112.203125 8.40625 112.578125 8.40625 C 113.203125 8.40625 113.675781 8.601562 114 8.984375 C 114.320312 9.371094 114.484375 9.945312 114.484375 10.703125 Z M 120.625 11.046875 L 120.625 11.484375 L 116.484375 11.484375 C 116.523438 12.101562 116.710938 12.570312 117.046875 12.890625 C 117.378906 13.214844 117.84375 13.375 118.4375 13.375 C 118.78125 13.375 119.113281 13.335938 119.4375 13.25 C 119.769531 13.167969 120.09375 13.042969 120.40625 12.875 L 120.40625 13.71875 C 120.082031 13.855469 119.75 13.960938 119.40625 14.03125 C 119.070312 14.101562 118.734375 14.140625 118.390625 14.140625 C 117.515625 14.140625 116.820312 13.890625 116.3125 13.390625 C 115.800781 12.882812 115.546875 12.1875 115.546875 11.3125 C 115.546875 10.417969 115.785156 9.710938 116.265625 9.1875 C 116.753906 8.667969 117.410156 8.40625 118.234375 8.40625 C 118.972656 8.40625 119.554688 8.640625 119.984375 9.109375 C 120.410156 9.578125 120.625 10.226562 120.625 11.046875 Z M 119.71875 10.78125 C 119.71875 10.292969 119.582031 9.902344 119.3125 9.609375 C 119.039062 9.308594 118.6875 9.15625 118.25 9.15625 C 117.738281 9.15625 117.332031 9.304688 117.03125 9.59375 C 116.738281 9.875 116.566406 10.273438 116.515625 10.78125 Z M 125.546875 9.359375 L 125.546875 6.40625 L 126.4375 6.40625 L 126.4375 14 L 125.546875 14 L 125.546875 13.171875 C 125.359375 13.507812 125.117188 13.75 124.828125 13.90625 C 124.535156 14.0625 124.1875 14.140625 123.78125 14.140625 C 123.125 14.140625 122.585938 13.882812 122.171875 13.359375 C 121.753906 12.828125 121.546875 12.132812 121.546875 11.265625 C 121.546875 10.414062 121.753906 9.726562 122.171875 9.203125 C 122.585938 8.671875 123.125 8.40625 123.78125 8.40625 C 124.1875 8.40625 124.535156 8.484375 124.828125 8.640625 C 125.117188 8.796875 125.359375 9.039062 125.546875 9.359375 Z M 122.484375 11.265625 C 122.484375 11.933594 122.617188 12.453125 122.890625 12.828125 C 123.160156 13.203125 123.535156 13.390625 124.015625 13.390625 C 124.484375 13.390625 124.851562 13.203125 125.125 12.828125 C 125.40625 12.453125 125.546875 11.933594 125.546875 11.265625 C 125.546875 10.609375 125.40625 10.09375 125.125 9.71875 C 124.851562 9.34375 124.484375 9.15625 124.015625 9.15625 C 123.535156 9.15625 123.160156 9.34375 122.890625 9.71875 C 122.617188 10.09375 122.484375 10.609375 122.484375 11.265625 Z M 79 4.71875 "/>
</g>
</svg>
